<?xml version="1.0" encoding="utf-8"?>
<!-- Generator: Adobe Illustrator 16.0.0, SVG Export Plug-In . SVG Version: 6.00 Build 0)  -->
<!DOCTYPE svg PUBLIC "-//W3C//DTD SVG 1.1//EN" "http://www.w3.org/Graphics/SVG/1.1/DTD/svg11.dtd">
<svg version="1.1" id="Layer_1" xmlns="http://www.w3.org/2000/svg" xmlns:xlink="http://www.w3.org/1999/xlink" x="0px" y="0px"
	 width="255.099px" height="37.499px" viewBox="0 0 255.099 37.499" enable-background="new 0 0 255.099 37.499"
	 xml:space="preserve">
<g>
	<text transform="matrix(1 0 0 1 0 29.2432)" fill="#470941" font-family="'Gilroy-Light'" font-size="34.4037">PROJEC</text>
	<g>
		<path fill="#7FAE1E" d="M130.341,3.681c-0.281,0.147,4.717-0.875,8.66,0.978c3.946,1.854,6.405,4.08,5.63,5.731
			c-0.775,1.651-4.603,1.488-8.547-0.365C132.136,8.172,130.341,3.681,130.341,3.681z"/>
		<path fill="#7FAE1E" d="M161.341,3.099c0.243,0.167-4.525-1.08-9.1,0.812c-4.568,1.892-7.74,4.23-7.451,6.04
			c0.287,1.808,4.229,1.74,8.797-0.152C158.16,7.906,161.341,3.099,161.341,3.099z"/>
		<path fill="#7FAE1E" d="M144.136,10.589c0,0,1.611,14.002,0,20.195c0,0,1.105,2.063,1.688,0c0.875-3.097,0.162-11.479-0.27-18.979
			C145.347,8.215,144.334,8.973,144.136,10.589z"/>
	</g>
	<text transform="matrix(1 0 0 1 173.8384 29.2432)" fill="#470941" font-family="'Gilroy-Light'" font-size="34.4037">SEED</text>
</g>
</svg>
